<mxfile host="app.diagrams.net" modified="2021-06-01T07:03:50.227Z" agent="5.0 (Windows)" etag="uh6-64agLrzSCskGusQD" version="14.3.0" type="github">
  <diagram id="mX_FDXIolsC-S3m8zECh" name="Page-1">
    <mxGraphModel dx="1038" dy="519" grid="1" gridSize="10" guides="1" tooltips="1" connect="1" arrows="1" fold="1" page="1" pageScale="1" pageWidth="1169" pageHeight="827" math="0" shadow="0">
      <root>
        <mxCell id="0" />
        <mxCell id="1" parent="0" />
        <mxCell id="2wvC1gZ130ZXCiNSKxBG-1" value="MCDA CONNECTIVITY SYSTEM FLOWCHART" style="swimlane;html=1;childLayout=stackLayout;resizeParent=1;resizeParentMax=0;horizontal=1;startSize=20;horizontalStack=0;" vertex="1" parent="1">
          <mxGeometry x="50" y="30" width="1090" height="780" as="geometry" />
        </mxCell>
        <mxCell id="2wvC1gZ130ZXCiNSKxBG-4" value="Lane 3" style="swimlane;html=1;startSize=20;horizontal=0;" vertex="1" parent="2wvC1gZ130ZXCiNSKxBG-1">
          <mxGeometry y="20" width="1090" height="760" as="geometry" />
        </mxCell>
        <mxCell id="2wvC1gZ130ZXCiNSKxBG-5" value="Start" style="rounded=1;whiteSpace=wrap;html=1;" vertex="1" parent="2wvC1gZ130ZXCiNSKxBG-4">
          <mxGeometry x="180" y="20" width="120" height="60" as="geometry" />
        </mxCell>
        <mxCell id="2wvC1gZ130ZXCiNSKxBG-6" value="User logins on the online portal" style="rounded=0;whiteSpace=wrap;html=1;" vertex="1" parent="2wvC1gZ130ZXCiNSKxBG-4">
          <mxGeometry x="170" y="150" width="140" height="70" as="geometry" />
        </mxCell>
        <mxCell id="2wvC1gZ130ZXCiNSKxBG-8" value="" style="edgeStyle=orthogonalEdgeStyle;rounded=0;orthogonalLoop=1;jettySize=auto;html=1;entryX=0.5;entryY=0;entryDx=0;entryDy=0;" edge="1" parent="2wvC1gZ130ZXCiNSKxBG-4" source="2wvC1gZ130ZXCiNSKxBG-5" target="2wvC1gZ130ZXCiNSKxBG-6">
          <mxGeometry relative="1" as="geometry">
            <mxPoint x="240" y="160" as="targetPoint" />
          </mxGeometry>
        </mxCell>
        <mxCell id="2wvC1gZ130ZXCiNSKxBG-9" value="Account registration for users without an account" style="shape=process;whiteSpace=wrap;html=1;backgroundOutline=1;" vertex="1" parent="2wvC1gZ130ZXCiNSKxBG-4">
          <mxGeometry x="390" y="150" width="140" height="70" as="geometry" />
        </mxCell>
        <mxCell id="2wvC1gZ130ZXCiNSKxBG-12" value="User fills in the online service requisition form and submits. An email is auto-generated and sent to the committee" style="whiteSpace=wrap;html=1;rounded=0;" vertex="1" parent="2wvC1gZ130ZXCiNSKxBG-4">
          <mxGeometry x="150" y="290" width="180" height="80" as="geometry" />
        </mxCell>
        <mxCell id="2wvC1gZ130ZXCiNSKxBG-13" value="" style="edgeStyle=orthogonalEdgeStyle;rounded=0;orthogonalLoop=1;jettySize=auto;html=1;" edge="1" parent="2wvC1gZ130ZXCiNSKxBG-4" source="2wvC1gZ130ZXCiNSKxBG-6" target="2wvC1gZ130ZXCiNSKxBG-12">
          <mxGeometry relative="1" as="geometry" />
        </mxCell>
        <mxCell id="2wvC1gZ130ZXCiNSKxBG-18" value="&lt;div&gt;Reviewed within&lt;/div&gt;&lt;div&gt; 24 hours?&lt;/div&gt;" style="rhombus;whiteSpace=wrap;html=1;" vertex="1" parent="2wvC1gZ130ZXCiNSKxBG-4">
          <mxGeometry x="170" y="590" width="140" height="80" as="geometry" />
        </mxCell>
        <mxCell id="2wvC1gZ130ZXCiNSKxBG-11" value="" style="edgeStyle=orthogonalEdgeStyle;rounded=0;orthogonalLoop=1;jettySize=auto;html=1;" edge="1" parent="1" source="2wvC1gZ130ZXCiNSKxBG-9">
          <mxGeometry relative="1" as="geometry">
            <mxPoint x="360" y="235" as="targetPoint" />
          </mxGeometry>
        </mxCell>
        <mxCell id="2wvC1gZ130ZXCiNSKxBG-17" value="" style="edgeStyle=orthogonalEdgeStyle;rounded=0;orthogonalLoop=1;jettySize=auto;html=1;entryX=0.5;entryY=0;entryDx=0;entryDy=0;" edge="1" parent="1" source="2wvC1gZ130ZXCiNSKxBG-14" target="2wvC1gZ130ZXCiNSKxBG-18">
          <mxGeometry relative="1" as="geometry">
            <mxPoint x="290" y="646.25" as="targetPoint" />
          </mxGeometry>
        </mxCell>
        <mxCell id="2wvC1gZ130ZXCiNSKxBG-14" value="The system assigns a committee member to review the request and sends out an email notification" style="whiteSpace=wrap;html=1;rounded=0;" vertex="1" parent="1">
          <mxGeometry x="210" y="487.5" width="160" height="72.5" as="geometry" />
        </mxCell>
        <mxCell id="2wvC1gZ130ZXCiNSKxBG-15" value="" style="edgeStyle=orthogonalEdgeStyle;rounded=0;orthogonalLoop=1;jettySize=auto;html=1;" edge="1" parent="1" source="2wvC1gZ130ZXCiNSKxBG-12" target="2wvC1gZ130ZXCiNSKxBG-14">
          <mxGeometry relative="1" as="geometry" />
        </mxCell>
        <mxCell id="2wvC1gZ130ZXCiNSKxBG-19" value="" style="whiteSpace=wrap;html=1;" vertex="1" parent="1">
          <mxGeometry x="450" y="650" width="120" height="60" as="geometry" />
        </mxCell>
        <mxCell id="2wvC1gZ130ZXCiNSKxBG-20" value="" style="edgeStyle=orthogonalEdgeStyle;rounded=0;orthogonalLoop=1;jettySize=auto;html=1;" edge="1" parent="1" source="2wvC1gZ130ZXCiNSKxBG-18" target="2wvC1gZ130ZXCiNSKxBG-19">
          <mxGeometry relative="1" as="geometry" />
        </mxCell>
        <mxCell id="2wvC1gZ130ZXCiNSKxBG-22" value="" style="edgeStyle=orthogonalEdgeStyle;rounded=0;orthogonalLoop=1;jettySize=auto;html=1;entryX=0;entryY=0.5;entryDx=0;entryDy=0;exitX=0;exitY=0.5;exitDx=0;exitDy=0;" edge="1" parent="1" source="2wvC1gZ130ZXCiNSKxBG-18" target="2wvC1gZ130ZXCiNSKxBG-14">
          <mxGeometry relative="1" as="geometry">
            <mxPoint x="130" y="680" as="targetPoint" />
            <Array as="points">
              <mxPoint x="170" y="680" />
              <mxPoint x="170" y="524" />
            </Array>
          </mxGeometry>
        </mxCell>
      </root>
    </mxGraphModel>
  </diagram>
</mxfile>
